<svg width="156" height="127" viewBox="0 0 156 127" fill="none" xmlns="http://www.w3.org/2000/svg">
<path fill-rule="evenodd" clip-rule="evenodd" d="M135.966 0H152.962V22.4802C147.461 26.362 141.79 29.9394 135.966 33.2275V0ZM118.971 41.8297V10.5665H101.975V48.6838C107.742 46.6201 113.412 44.3392 118.971 41.8297ZM101.975 57.686C107.641 56.152 113.328 54.484 118.971 52.6533V90.5696H101.975V57.686ZM84.9789 54.0731V19.6234H67.9831V58.2081C68.2481 58.1522 68.5133 58.096 68.7785 58.0396C74.2392 56.878 79.6428 55.5587 84.9789 54.0731ZM67.9831 65.6538C69.3102 65.3884 70.6378 65.1146 71.9653 64.8323C76.2272 63.9257 80.5759 62.9675 84.9789 61.9433V90.5696H67.9831V65.6538ZM50.9874 61.4807V30.1899H33.9916V64.1311C39.5035 63.374 45.185 62.492 50.9874 61.4807ZM33.9916 70.7803C39.5286 70.2017 45.2175 69.4863 50.9874 68.6201V90.5696H33.9916V70.7803ZM16.9958 66.1324V43.7753H0V67.3911C5.30538 67.1333 10.9971 66.7161 16.9958 66.1324ZM0 72.7597C5.27811 72.7177 10.9813 72.5298 16.9958 72.1739V90.5696H0V72.7597ZM135.966 46.537C141.783 44.2128 147.474 41.6727 152.962 38.8825V90.5696H135.966V46.537Z" fill="#446BB7"/>
<path d="M2.89746 102.543V106H0.875977V96.1891H4.70332C5.44004 96.1891 6.08691 96.3238 6.64395 96.5934C7.20547 96.8629 7.63672 97.247 7.9377 97.7456C8.23867 98.2397 8.38916 98.8035 8.38916 99.4369C8.38916 100.398 8.05898 101.157 7.39863 101.714C6.74277 102.267 5.83311 102.543 4.66963 102.543H2.89746ZM2.89746 100.906H4.70332C5.23789 100.906 5.64443 100.78 5.92295 100.529C6.20596 100.277 6.34746 99.9176 6.34746 99.4504C6.34746 98.9697 6.20596 98.5812 5.92295 98.2847C5.63994 97.9882 5.24912 97.8354 4.75049 97.8265H2.89746V100.906ZM31.2807 101.748H27.3995V104.376H31.9545V106H25.378V96.1891H31.9411V97.8265H27.3995V100.165H31.2807V101.748ZM52.3664 102.408H50.756V106H48.7345V96.1891H52.3799C53.5389 96.1891 54.4328 96.4474 55.0617 96.964C55.6906 97.4806 56.0051 98.2105 56.0051 99.1539C56.0051 99.8232 55.8591 100.383 55.5671 100.832C55.2796 101.276 54.8416 101.631 54.2531 101.896L56.3757 105.906V106H54.206L52.3664 102.408ZM50.756 100.771H52.3866C52.8943 100.771 53.2873 100.643 53.5658 100.387C53.8443 100.126 53.9836 99.7693 53.9836 99.3156C53.9836 98.8529 53.8511 98.4891 53.586 98.224C53.3255 97.959 52.9235 97.8265 52.3799 97.8265H50.756V100.771ZM79.0449 101.991H75.1636V106H73.1422V96.1891H79.53V97.8265H75.1636V100.36H79.0449V101.991ZM102.199 101.748H98.318V104.376H102.873V106H96.2965V96.1891H102.86V97.8265H98.318V100.165H102.199V101.748ZM127.355 102.732C127.278 103.788 126.888 104.619 126.182 105.225C125.482 105.832 124.556 106.135 123.406 106.135C122.148 106.135 121.158 105.712 120.435 104.868C119.716 104.019 119.357 102.855 119.357 101.378V100.778C119.357 99.8345 119.523 99.0034 119.855 98.2847C120.188 97.5659 120.662 97.0156 121.277 96.6338C121.897 96.2475 122.616 96.0543 123.433 96.0543C124.565 96.0543 125.477 96.3575 126.169 96.964C126.861 97.5704 127.261 98.4217 127.368 99.5178H125.347C125.297 98.8844 125.12 98.4262 124.815 98.1432C124.514 97.8557 124.053 97.7119 123.433 97.7119C122.759 97.7119 122.254 97.9545 121.917 98.4396C121.585 98.9203 121.414 99.6683 121.405 100.683V101.425C121.405 102.485 121.564 103.26 121.883 103.749C122.207 104.239 122.714 104.484 123.406 104.484C124.031 104.484 124.496 104.342 124.801 104.059C125.111 103.772 125.288 103.329 125.333 102.732H127.355ZM151.459 97.8265H148.454V106H146.433V97.8265H143.468V96.1891H151.459V97.8265ZM8.57783 119.732C8.50146 120.788 8.11064 121.619 7.40537 122.225C6.70459 122.832 5.7792 123.135 4.6292 123.135C3.37139 123.135 2.38086 122.712 1.65762 121.868C0.938867 121.019 0.579492 119.855 0.579492 118.378V117.778C0.579492 116.834 0.745703 116.003 1.07813 115.285C1.41055 114.566 1.88447 114.016 2.4999 113.634C3.11982 113.247 3.83857 113.054 4.65615 113.054C5.78818 113.054 6.7001 113.358 7.39189 113.964C8.08369 114.57 8.4835 115.422 8.59131 116.518H6.56982C6.52041 115.884 6.34297 115.426 6.0375 115.143C5.73652 114.856 5.27607 114.712 4.65615 114.712C3.98232 114.712 3.47695 114.954 3.14004 115.44C2.80762 115.92 2.63691 116.668 2.62793 117.683V118.425C2.62793 119.485 2.7874 120.26 3.10635 120.749C3.42979 121.239 3.9374 121.484 4.6292 121.484C5.25361 121.484 5.71855 121.342 6.02402 121.059C6.33398 120.772 6.51143 120.329 6.55635 119.732H8.57783ZM31.0381 120.979H27.4938L26.82 123H24.6705L28.3226 113.189H30.1959L33.8682 123H31.7187L31.0381 120.979ZM28.0396 119.341H30.4923L29.2592 115.669L28.0396 119.341ZM52.4001 119.543V123H50.3786V113.189H54.206C54.9427 113.189 55.5896 113.324 56.1466 113.593C56.7081 113.863 57.1394 114.247 57.4403 114.746C57.7413 115.24 57.8918 115.804 57.8918 116.437C57.8918 117.398 57.5616 118.157 56.9013 118.714C56.2454 119.267 55.3358 119.543 54.1723 119.543H52.4001ZM52.4001 117.906H54.206C54.7405 117.906 55.1471 117.78 55.4256 117.529C55.7086 117.277 55.8501 116.918 55.8501 116.45C55.8501 115.97 55.7086 115.581 55.4256 115.285C55.1426 114.988 54.7518 114.835 54.2531 114.826H52.4001V117.906ZM82.2658 114.826H79.2605V123H77.239V114.826H74.2742V113.189H82.2658V114.826ZM101.168 123H99.1468V113.189H101.168V123ZM124.302 120.979H120.758L120.084 123H117.935L121.587 113.189H123.46L127.133 123H124.983L124.302 120.979ZM121.304 119.341H123.757L122.524 115.669L121.304 119.341ZM145.664 121.376H149.957V123H143.643V113.189H145.664V121.376Z" fill="black"/>
</svg>
